<?xml version="1.0" encoding="UTF-8" standalone="no"?>
<!-- Created with Inkscape (http://www.inkscape.org/) -->

<svg
   width="280"
   height="64"
   viewBox="0 0 74.083332 16.933333"
   version="1.1"
   id="svg1"
   xml:space="preserve"
   inkscape:version="1.3.2 (091e20e, 2023-11-25, custom)"
   sodipodi:docname="base.svg"
   inkscape:export-filename="base.png"
   inkscape:export-xdpi="96"
   inkscape:export-ydpi="96"
   xmlns:inkscape="http://www.inkscape.org/namespaces/inkscape"
   xmlns:sodipodi="http://sodipodi.sourceforge.net/DTD/sodipodi-0.dtd"
   xmlns="http://www.w3.org/2000/svg"
   xmlns:svg="http://www.w3.org/2000/svg"><sodipodi:namedview
     id="namedview1"
     pagecolor="#ffffff"
     bordercolor="#000000"
     borderopacity="0.25"
     inkscape:showpageshadow="2"
     inkscape:pageopacity="0.0"
     inkscape:pagecheckerboard="0"
     inkscape:deskcolor="#d1d1d1"
     inkscape:document-units="px"
     inkscape:zoom="1.8519888"
     inkscape:cx="159.01824"
     inkscape:cy="-34.827424"
     inkscape:window-width="1920"
     inkscape:window-height="991"
     inkscape:window-x="1911"
     inkscape:window-y="-9"
     inkscape:window-maximized="1"
     inkscape:current-layer="layer1"
     showguides="true" /><defs
     id="defs1" /><g
     inkscape:label="Layer 1"
     inkscape:groupmode="layer"
     id="layer1"><g
       id="g9"
       transform="matrix(0.02152463,0,0,0.02152463,-4.3839988,0.05089127)"><path
         d="M 0,0 C 0.90363281,0.61230469 1.8072656,1.2246094 2.7382813,1.8554687 36.235578,25.366596 56.770188,57.645313 67,97 c 0,0.66 0,1.32 0,2 C 63.010364,97.670121 61.793732,95.099953 59.5625,91.75 39.345338,62.48257 9.691783,44.025088 -24,34 c 0.955195,0.496289 1.910391,0.992578 2.894531,1.503906 C -9.2618454,41.704853 1.760988,48.332482 12,57 c 0.835313,0.699961 1.670625,1.399922 2.53125,2.121094 C 41.943663,82.853136 55.674344,116.64303 59,152 56,151 56,151 54.273437,147.82422 53.63518,146.44782 53.00273,145.06873 52.375,143.6875 46.759035,131.93181 38.916429,122.46489 30,113 29.338711,112.26266 28.677422,111.52531 27.996094,110.76563 7.2535594,88.566784 -25.830489,75.25812 -55.709961,73.874512 c -37.162638,-1.228874 -72.214959,9.488163 -99.954099,34.937988 -28.05169,26.50654 -41.15973,60.98597 -42.29053,99.0752 -0.0581,2.70459 -0.0673,5.40723 -0.0454,8.1123 -0.66,0 -1.32,0 -2,0 -3.79595,-8.49197 -6.67833,-16.88309 -8.8125,-25.9375 -0.30974,-1.31231 -0.30974,-1.31231 -0.62573,-2.65112 -1.95883,-8.63908 -2.73241,-17.07214 -3.12427,-25.91138 -0.0432,-0.91781 -0.0864,-1.83563 -0.13086,-2.78125 -0.10497,-2.23947 -0.20713,-4.47903 -0.30664,-6.71875 -1.63943,9.7115 -2.32117,19.02135 -2.25,28.875 0.006,1.95704 0.006,1.95704 0.0117,3.95361 0.0824,9.19148 0.61853,18.11815 2.23828,27.17139 -5.3875,-1.79583 -7.41872,-7.88574 -9.90625,-12.73975 C -241.35194,161.14191 -243.94839,117.41658 -230.25,77.4375 -222.43822,55.673434 -209.58239,35.169553 -193,19 c 0.66,0 1.32,0 2,0 0,-0.66 0,-1.32 0,-2 3.49209,-3.204887 7.28467,-6.0589 11,-9 0.70512,-0.5929688 1.41023,-1.1859375 2.13672,-1.796875 C -157.59573,-10.520594 -130.93015,-20.763436 -105,-24 c 1.22396,-0.166289 1.22396,-0.166289 2.47266,-0.335937 C -67.139252,-28.383416 -29.466754,-20.281256 0,0 Z m -212,143 c 1,4 1,4 1,4 z"
         fill="#c70f17"
         transform="translate(767,108)"
         id="path1" /><path
         d="m 0,0 c 0.74476089,0.00141495 1.4895218,0.0028299 2.2568512,0.00428772 2.3532278,0.00554864 4.7063565,0.0180912 7.0595551,0.03086853 1.6061187,0.0050217 3.2122387,0.0095834 4.8183597,0.01367187 3.914751,0.01096078 7.829429,0.02818929 11.74414,0.04882813 -0.33,0.98999995 -0.66,1.98000005 -1,3.00000005 -2.527344,0.8867187 -2.527344,0.8867187 -5.9375,1.6874999 -21.5495928,5.8076918 -40.603786,17.4372128 -57.0625,32.3124998 -0.868828,0.725742 -1.737656,1.451485 -2.632812,2.199219 -12.765201,10.82441 -23.132258,25.788302 -30.367188,40.800781 0.643242,-0.787617 1.286485,-1.575234 1.949219,-2.386719 10.765092,-13.041428 21.88233,-24.298205 36.050781,-33.613281 0.804375,-0.550429 1.60875,-1.100859 2.4375,-1.667969 29.527618,-19.121183 66.700346,-23.008072 100.5625,-16.332031 1.335583,0.324203 2.669651,0.65495 4,1 0,0.66 0,1.32 0,2 -1.234922,0.219141 -2.469843,0.438281 -3.742187,0.664063 -36.359535,6.693714 -68.345589,23.714738 -90.234375,54.269531 -11.580769,17.55001 -19.304805,36.36267 -23.023438,57.06641 -0.186914,1.02996 -0.373828,2.05992 -0.566406,3.12109 -1.598006,14.29567 -1.445146,29.78484 1.566406,43.87891 0.256524,1.25168 0.513047,2.50336 0.777344,3.79296 6.42845,29.32307 23.582999,57.19235 47.7851562,75.14454 0.6939991,0.51578 1.3879981,1.03157 2.1030274,1.56298 14.4165874,10.53407 30.1578144,17.64896 47.3344724,22.49952 0,0.66 0,1.32 0,2 -18.132967,2.94749 -36.284639,0.15203 -53.9999998,-4 14.7508968,5.82186 29.2138388,10.19283 44.9999998,12 -0.33,0.99 -0.66,1.98 -1,3 -2.478387,0.48351 -4.957598,0.96187 -7.4375,1.4375 -0.687715,0.1347 -1.375429,0.26941 -2.083984,0.4082 -40.2398469,7.67364 -81.714674,-1.89306 -115.573242,-24.52441 -4.555757,-3.15938 -8.766941,-6.63983 -12.905274,-10.32129 -0.836601,-0.71672 -1.673203,-1.43344 -2.535156,-2.17188 -31.60009,-27.54629 -48.32455,-66.41705 -51.32422,-107.72217 -2.65558,-39.76913 12.20597,-78.927081 38.11328,-108.695798 2.22011,-2.498091 4.47204,-4.961169 6.7461,-7.410156 0.53882,-0.592968 1.07765,-1.185937 1.632809,-1.796875 C -75.007941,17.467256 -35.665909,-0.26015725 0,0 Z m -74.121094,83.097656 c 1,2 1,2 1,2 z"
         fill="#eb0015"
         transform="translate(479.12109,98.902344)"
         id="path2" /><path
         d="M 0,0 C 0.6899707,-0.00100708 1.3799414,-0.00201416 2.0908203,-0.00305176 13.039285,0.00774429 23.447076,0.72927417 34.125,3.25 36.048926,3.6850586 36.048926,3.6850586 38.011719,4.1289062 65.202009,10.807714 89.118858,24.906885 109.125,44.25 c 0.83273,0.792773 1.66547,1.585547 2.52344,2.402344 4.07787,3.956248 4.07787,3.956248 5.47656,5.597656 0,0.66 0,1.32 0,2 0.66,0 1.32,0 2,0 1.18579,1.306641 1.18579,1.306641 2.50391,3.15625 0.48887,0.68425 0.97775,1.368501 1.48144,2.073486 0.52046,0.749187 1.04092,1.498374 1.57715,2.270264 0.53722,0.771746 1.07443,1.543491 1.62793,2.338623 23.98714,34.949733 34.13228,76.697037 26.35303,118.621827 -6.21708,31.39593 -21.02376,58.89643 -43.54346,81.53955 -0.47663,0.48066 -0.95326,0.96132 -1.44434,1.45654 -8.724718,8.67383 -19.715376,18.50544 -31.55566,22.54346 1.43489,-3.17558 3.295233,-5.9597 5.274414,-8.82007 15.86297,-22.9977 28.089876,-50.76548 27.725586,-79.17993 -0.34031,1.25812 -0.68063,2.51625 -1.03125,3.8125 -3.19753,11.44368 -7.04815,21.87613 -12.96875,32.1875 -0.516028,0.90009 -0.516028,0.90009 -1.04248,1.81836 C 88.462925,247.678 81.603556,256.03393 74.125,264.25 c -0.614883,0.68707 -1.229766,1.37414 -1.863281,2.08203 C 60.88888,278.38216 44.509288,289.12705 29.125,295.25 c -0.99,0 -1.98,0 -3,0 1.251969,-3.75591 2.920098,-4.57691 6,-7 5.912187,-6.53892 11.130958,-13.66098 16,-21 0.734766,-1.06154 0.734766,-1.06154 1.484375,-2.14453 C 67.060237,238.31933 72.384686,201.8428 66.673828,170.75952 59.309885,135.87324 39.86228,104.84621 10.098145,84.891113 -12.585502,70.32526 -37.352947,62.802941 -64.375,62.875 c -0.699437,-1.21e-4 -1.398875,-2.42e-4 -2.119507,-3.66e-4 -15.467002,0.03792 -29.711401,2.281933 -44.263303,7.640991 C -112.875,71.25 -112.875,71.25 -114.875,71.25 c 1.27177,-3.815296 3.52766,-5.29445 6.625,-7.625 0.57903,-0.43804 1.15806,-0.876079 1.75464,-1.327393 C -92.633761,52.010208 -77.41033,44.269654 -60.875,39.25 -79.427644,41.628544 -96.415561,46.903484 -112.91797,55.746094 -115.875,57.25 -115.875,57.25 -117.875,57.25 c 1.48872,-5.316871 4.97935,-8.437224 8.8125,-12.1875 0.67289,-0.662739 1.34578,-1.325479 2.03906,-2.008301 C -78.289124,15.192467 -39.875253,0.04034996 0,0 Z m 110.125,190.25 c 0,1.98 0,3.96 0,6 0.33,0 0.66,0 1,0 0,-1.98 0,-3.96 0,-6 -0.33,0 -0.66,0 -1,0 z"
         fill="#89428e"
         transform="translate(756.875,263.75)"
         id="path3" /><path
         d="M 0,0 C 0.66,0 1.32,0 2,0 1.855625,0.79277344 1.71125,1.5855469 1.5625,2.4023438 -4.0686314,37.79244 2.6147863,74.133775 23.492187,103.59766 c 21.138057,28.97329 50.963263,48.79335 86.604493,54.75293 35.09506,5.38326 71.50991,-1.87331 100.47754,-22.90137 4.28228,-3.20257 8.42131,-6.42475 12.17187,-10.25 C 225,123 225,123 227,123 c 0,-0.66 0,-1.32 0,-2 0.66,0 1.32,0 2,0 0.25395,-0.57492 0.50789,-1.14984 0.76953,-1.74219 1.3697,-2.51329 2.9599,-4.2978 4.91797,-6.38281 3.7312,-4.08461 6.8404,-8.37926 9.86719,-13.003906 C 245.03164,99.253633 245.50859,98.636172 246,98 c 0.66,0 1.32,0 2,0 -2.75401,13.14057 -7.62477,25.72547 -13,38 6.50808,-9.34964 12.18891,-18.66093 17,-29 0.99,0.33 1.98,0.66 3,1 -5.07679,35.20028 -15.87375,66.26857 -40,93 -1.23011,1.45754 -2.4594,2.91577 -3.6875,4.375 -3.47544,3.9252 -7.25559,7.31129 -11.3125,10.625 -0.90105,0.75023 -1.80211,1.50047 -2.73047,2.27344 C 178.51796,233.34124 156.54997,243.97439 133,249 c -0.67192,0.14808 -1.34385,0.29616 -2.03613,0.44873 C 110.08558,253.89938 87.820739,253.58855 67,249 65.749609,248.73316 64.499219,248.46633 63.210937,248.19141 25.115603,239.01426 -8.6806227,214.85265 -30,182 c -0.650977,-1.0016 -1.301953,-2.0032 -1.972656,-3.03516 C -52.333235,145.71669 -59.981764,103.04548 -51,65 c 2.627006,-10.559125 6.205359,-20.810985 10,-31 0.66,0 1.32,0 2,0 0.01458,0.657825 0.02916,1.315649 0.04419,1.993408 C -37.915482,78.264582 -27.022053,113.12146 0,146 -1.2352271,143.51054 -2.4963676,141.03685 -3.7695313,138.56641 -20.878659,105.18601 -26.609855,68.280796 -15,32 -6.7453738,6.7453738 -6.7453738,6.7453738 0,0 Z"
         fill="#ef7d00"
         transform="translate(342,345)"
         id="path4" /><path
         d="m 0,0 c 4.64107,0.62717162 8.501362,2.5200938 12.625,4.625 0.710757,0.3611792 1.421514,0.7223584 2.153809,1.0944824 C 28.888126,12.991158 42.151905,22.346047 53,34 c 1.206562,1.175625 1.206562,1.175625 2.4375,2.375 30.014649,30.746713 43.174171,70.21141 42.777344,112.67187 C 97.49256,181.93997 85.291089,213.30972 65,239 c -0.751523,0.97969 -1.503047,1.95937 -2.277344,2.96875 C 58.654304,247.20685 58.654304,247.20685 57,249 c -0.66,0 -1.32,0 -2,0 0,0.66 0,1.32 0,2 -0.66,0 -1.32,0 -2,0 -0.33,0.99 -0.66,1.98 -1,3 -0.66,0 -1.32,0 -2,0 0,0.66 0,1.32 0,2 -3.442322,3.25967 -7.246718,6.10813 -11,9 -0.534961,0.41379 -1.069922,0.82758 -1.621094,1.25391 -26.796049,20.49865 -59.363056,31.2098 -93.066406,31.05859 -1.309285,-0.005 -2.618569,-0.01 -3.967529,-0.0149 -35.195321,-0.42289 -67.364491,-13.32416 -94.804931,-35.094 -1.29856,-1.01488 -2.63801,-1.9771 -3.98535,-2.92627 -0.76957,-0.63228 -0.76957,-0.63228 -1.55469,-1.27734 0,-0.66 0,-1.32 0,-2 3.70709,0.65419 7.26409,1.64172 10.87012,2.71411 30.07881,8.81587 60.989643,8.79644 91.12988,0.28589 -0.894932,0.021 -1.789863,0.0419 -2.711914,0.0635 -33.7719,0.68497 -33.7719,0.68497 -50.288086,-4.06348 -0.99024,-0.27288 -0.99024,-0.27288 -2.00049,-0.55127 -19.7965,-5.5729 -38.24627,-15.53484 -53.14404,-29.73389 -1.75252,-1.77947 -1.75252,-1.77947 -3.85547,-2.71484 0,-0.66 0,-1.32 0,-2 -0.59297,-0.25781 -1.18594,-0.51563 -1.79687,-0.78125 -2.37974,-1.31645 -3.71292,-2.64456 -5.45313,-4.71875 -0.52078,-0.60844 -1.04156,-1.21688 -1.57812,-1.84375 C -180,211 -180,211 -180,209 c 3.03067,1.17725 6.00983,2.44151 8.97656,3.76953 33.91668,15.0275 70.78357,17.8487 105.89844,4.48047 2.392578,-1.04394 4.767597,-2.12889 7.125,-3.25 0.666606,-0.31421 1.333213,-0.62842 2.02002,-0.95215 C -33.283592,202.191 -14.68618,186.10877 -1,165 -0.37738281,164.06156 0.24523437,163.12312 0.88671875,162.15625 19.000334,133.17447 24.209446,96.192663 16.855713,63.033447 12.367453,44.513816 4.5818993,27.607559 -6.8508301,12.389404 -10,8.186181 -10,8.186181 -10,6 c 4.3308648,1.4975887 7.8727491,3.777674 11.5625,6.4375 0.6077124,0.43522 1.2154248,0.870439 1.8415527,1.318848 C 8.7507085,17.665685 13.58464,21.993153 18.378906,26.554687 20.830588,28.841949 23.354247,30.942724 26,33 19.440657,23.440106 12.7105,14.299354 4.2148437,6.3242187 3,5 3,5 3,3 2.01,2.67 1.02,2.34 0,2 0,1.34 0,0.68 0,0 Z"
         fill="#f7b500"
         transform="translate(665,402)"
         id="path5" /><path
         d="M 0,0 C 0.67932587,-0.00358521 1.3586517,-0.00717041 2.0585632,-0.01086426 15.15769,-0.04804566 27.046427,0.93235761 39.0625,6.375 c 1.34554,0.5955469 1.34554,0.5955469 2.718262,1.203125 12.547286,5.681114 23.53443,12.61691 33.906738,21.734375 0.85207,0.719297 1.704141,1.438594 2.582031,2.179687 27.406999,23.660112 41.098569,57.529859 44.417969,92.820313 -3,-1 -3,-1 -4.72656,-4.17578 C 117.32268,118.76032 116.69023,117.38123 116.0625,116 110.44653,104.24431 102.60393,94.777391 93.6875,85.3125 93.026211,84.575156 92.364922,83.837812 91.683594,83.078125 70.941059,60.879284 37.857011,47.57062 7.9775391,46.187012 -29.185099,44.958138 -64.23742,55.675175 -91.976562,81.125 c -28.051688,26.50654 -41.159728,60.98597 -42.290528,99.0752 -0.0581,2.70459 -0.0673,5.40723 -0.0454,8.1123 -0.66,0 -1.32,0 -2,0 -3.79595,-8.49197 -6.67833,-16.88309 -8.8125,-25.9375 -0.20649,-0.87487 -0.41298,-1.74974 -0.62573,-2.65112 -6.72346,-29.65269 -2.61177,-59.39671 13.37573,-85.282474 12.09704,-18.862059 26.83252,-35.086711 45.0625,-48.128906 0.7425,-0.549141 1.485,-1.098281 2.25,-1.664063 14.985132,-10.614468 32.999443,-17.2538356 50.75,-21.335937 1.263281,-0.3016406 2.526563,-0.6032813 3.828125,-0.9140625 C -20.384065,0.23793689 -10.287377,0.02186823 0,0 Z"
         fill="#df1622"
         transform="translate(703.3125,135.6875)"
         id="path6" /><path
         d="M 0,0 C 0.73987152,-0.00570007 1.479743,-0.01140015 2.2420349,-0.01727295 3.8208472,-0.02675083 5.3996795,-0.03326792 6.9785156,-0.03710938 9.3402269,-0.04664009 11.701,-0.07755689 14.0625,-0.109375 c 9.968164,-0.0692156 19.017522,0.93754275 28.710937,3.3125 1.022388,0.243794 2.044776,0.4875879 3.098145,0.7387695 6.939657,1.705143 13.380135,4.3731626 19.901855,7.2612305 0.929415,0.403477 1.858829,0.806953 2.816407,1.222656 36.316956,16.066248 66.198216,45.50505 80.865236,82.666992 0.54001,1.404921 1.07506,2.811762 1.60449,4.220704 0.60654,1.605553 1.24654,3.198403 1.89355,4.788083 9.95166,26.30631 8.87385,54.30484 -1.80859,80.0625 -7.35017,16.29184 -16.46151,29.82426 -28.37109,43.03906 -0.61617,0.68965 -1.23235,1.3793 -1.86719,2.08985 -11.38949,12.04113 -27.742119,22.78466 -43.132813,28.91015 -0.989999,0 -1.98,0 -3,0 1.251969,-3.7559 2.920098,-4.5769 6,-7 5.912187,-6.53892 11.130958,-13.66098 16,-21 0.734766,-1.06154 0.734766,-1.06154 1.484375,-2.14453 C 115.70867,201.27246 121.03312,164.79593 115.32227,133.71265 107.95832,98.826369 88.510718,67.799331 58.746582,47.844238 36.062936,33.278385 11.29549,25.756066 -15.726563,25.828125 c -0.699437,-1.21e-4 -1.398874,-2.42e-4 -2.119506,-3.66e-4 -15.467003,0.03792 -29.711402,2.281933 -44.263306,7.640991 -2.117187,0.734375 -2.117187,0.734375 -4.117187,0.734375 1.271765,-3.815296 3.527662,-5.29445 6.625,-7.625 0.57903,-0.43804 1.158061,-0.876079 1.754638,-1.327393 C -43.479124,14.587656 -27.826958,6.7897397 -10.605469,1.9296875 -6.7883571,0.76387014 -4.2417364,0.02527017 0,0 Z"
         fill="#b15fb5"
         transform="translate(708.22656,300.79687)"
         id="path7" /><path
         d="M 0,0 C 0.66,0 1.32,0 2,0 1.855625,0.79277344 1.71125,1.5855469 1.5625,2.4023438 -4.0686314,37.79244 2.6147863,74.133775 23.492187,103.59766 c 21.138057,28.97329 50.963263,48.79335 86.604493,54.75293 35.09506,5.38326 71.50991,-1.87331 100.47754,-22.90137 4.28228,-3.20257 8.42131,-6.42475 12.17187,-10.25 C 225,123 225,123 227,123 c 0,-0.66 0,-1.32 0,-2 0.66,0 1.32,0 2,0 0.25395,-0.57492 0.50789,-1.14984 0.76953,-1.74219 1.3697,-2.51329 2.9599,-4.2978 4.91797,-6.38281 3.7312,-4.08461 6.8404,-8.37926 9.86719,-13.003906 C 245.03164,99.253633 245.50859,98.636172 246,98 c 0.66,0 1.32,0 2,0 -4.5749,21.82881 -12.88627,42.32743 -29,58 -0.72961,0.71543 -1.45922,1.43086 -2.21094,2.16797 C 201.74129,172.18085 183.96721,181.4858 165,189 c -0.68659,0.27828 -1.37317,0.55655 -2.08057,0.84326 -4.56834,1.79864 -8.96255,2.89703 -13.79443,3.78174 -4.70559,0.75428 -4.70559,0.75428 -9.125,2.375 -8.43744,1.42571 -17.09492,1.20305 -25.625,1.1875 -0.71387,-0.001 -1.42774,-0.003 -2.16324,-0.004 C 75.996305,197.06073 42.744193,185.62277 15,162 14.329688,161.49727 13.659375,160.99453 12.96875,160.47656 -7.8777994,144.17986 -17.02115,112.04933 -20.398437,87.050781 -23.692138,56.561794 -16.296494,27.321651 -1,1 -0.67,0.67 -0.34,0.34 0,0 Z"
         fill="#f5a500"
         transform="translate(342,345)"
         id="path8" /><path
         d="m 0,0 c 4.3306977,1.497531 7.8732007,3.7771994 11.5625,6.4375 0.609163,0.437395 1.218325,0.87479 1.845947,1.3254394 C 19.718206,12.385291 25.368465,17.587657 31,23 c 0.982266,0.870117 0.982266,0.870117 1.984375,1.757812 15.172345,13.849985 20.547189,34.274786 24.479492,53.651124 0.345207,1.668344 0.7139,3.332088 1.111328,4.988769 1.660477,7.222189 1.731773,14.276306 1.674805,21.664795 -0.0082,1.28842 -0.01644,2.57684 -0.0249,3.9043 -0.486426,41.57111 -16.984662,80.04262 -46.512207,109.3667 -24.953584,24.27781 -52.318465,35.38343 -87.009766,34.94775 C -82.87082,253.04694 -91.798874,251.5849 -101,249 c -0.99677,-0.27288 -0.99677,-0.27288 -2.01367,-0.55127 -19.79002,-5.57528 -38.23745,-15.539 -53.13086,-29.73389 -1.75252,-1.77947 -1.75252,-1.77947 -3.85547,-2.71484 0,-0.66 0,-1.32 0,-2 -0.59297,-0.25781 -1.18594,-0.51563 -1.79687,-0.78125 -2.37974,-1.31645 -3.71292,-2.64456 -5.45313,-4.71875 -0.52078,-0.60844 -1.04156,-1.21688 -1.57812,-1.84375 C -170,205 -170,205 -170,203 c 3.03067,1.17725 6.00983,2.44151 8.97656,3.76953 33.91668,15.0275 70.783567,17.8487 105.89844,4.48047 2.392578,-1.04394 4.767597,-2.12889 7.125,-3.25 0.666606,-0.31421 1.333213,-0.62842 2.02002,-0.95215 C -23.283592,196.191 -4.68618,180.10877 9,159 c 0.6226172,-0.93844 1.245234,-1.87688 1.886719,-2.84375 C 29.000334,127.17447 34.209446,90.192663 26.855713,57.033447 22.367453,38.513816 14.581899,21.607559 3.1491699,6.3894043 0,2.186181 0,2.186181 0,0 Z"
         fill="#fad300"
         transform="translate(655,408)"
         id="path9" /></g><text
       xml:space="preserve"
       style="font-weight:800;font-size:14.1111px;line-height:1;font-family:Poppins;-inkscape-font-specification:'Poppins Ultra-Bold';letter-spacing:0.105833px;fill:#89428e;stroke-width:0.79375;stroke-linejoin:round;paint-order:stroke fill markers;fill-opacity:1"
       x="16.971428"
       y="13.687774"
       id="text1"><tspan
         sodipodi:role="line"
         id="tspan1"
         style="font-size:14.1111px;letter-spacing:0.105833px;stroke-width:0.79375;fill:#89428e;fill-opacity:1"
         x="16.971428"
         y="13.687774">Blazor9</tspan></text></g></svg>
